<svg width="289" height="76" viewBox="0 0 289 76" fill="none" xmlns="http://www.w3.org/2000/svg">
<g clip-path="url(#clip0_2006_626)">
<path fill-rule="evenodd" clip-rule="evenodd" d="M0.399902 0H288.6V76H0.399902V0Z" fill="#F39332"/>
<path fill-rule="evenodd" clip-rule="evenodd" d="M138.424 29.36C137.272 29.36 136.48 30.152 136.48 31.16C136.48 32.168 137.2 32.96 138.352 32.96C139.504 32.96 140.296 32.168 140.296 31.16C140.296 30.152 139.576 29.36 138.424 29.36ZM136.48 34.472V44.912H139.864V34.472H136.48ZM145.408 36.2C145.84 35.48 146.632 34.472 148.432 34.472C150.664 34.472 152.32 35.984 152.32 39.224V45.2H149.008V39.512C149.008 38.072 148.504 37.136 147.28 37.136C146.344 37.136 145.768 37.784 145.552 38.432C145.408 38.648 145.408 39.008 145.408 39.296V45.128H142.024C142.024 45.128 142.096 35.696 142.024 34.688H145.408V36.2Z" fill="white"/>
<path fill-rule="evenodd" clip-rule="evenodd" d="M126.4 38C126.4 28.064 134.464 20 144.4 20C154.336 20 162.4 28.064 162.4 38C162.4 47.936 154.336 56 144.4 56C134.464 56 126.4 47.936 126.4 38ZM128.56 38C128.56 46.784 135.616 53.84 144.4 53.84C153.184 53.84 160.24 46.784 160.24 38C160.24 29.216 153.184 22.16 144.4 22.16C135.616 22.16 128.56 29.216 128.56 38Z" fill="white"/>
</g>
<defs>
<clipPath id="clip0_2006_626">
<rect width="288.2" height="76" fill="white" transform="translate(0.399902)"/>
</clipPath>
</defs>
</svg>
