<svg width="289" height="76" viewBox="0 0 289 76" fill="none" xmlns="http://www.w3.org/2000/svg">
<g clip-path="url(#clip0_2006_638)">
<path fill-rule="evenodd" clip-rule="evenodd" d="M0.600098 0H288.8V76H0.600098V0Z" fill="#41BFED"/>
<path fill-rule="evenodd" clip-rule="evenodd" d="M137.688 30.08H151.512C152.088 30.08 152.52 30.656 152.52 31.376V32.384L144.6 37.928L136.68 32.384V31.376C136.68 30.656 137.112 30.08 137.688 30.08ZM143.743 40.3184C144.143 40.5488 144.343 40.664 144.6 40.664C144.888 40.664 145.104 40.52 145.608 40.16L152.52 35.336V44.552C152.52 45.272 152.088 45.848 151.512 45.848H137.688C137.112 45.848 136.68 45.272 136.68 44.552V35.336L143.592 40.232C143.645 40.2624 143.695 40.2912 143.743 40.3184Z" fill="white"/>
<path fill-rule="evenodd" clip-rule="evenodd" d="M126.6 38C126.6 28.064 134.664 20 144.6 20C154.536 20 162.6 28.064 162.6 38C162.6 47.936 154.536 56 144.6 56C134.664 56 126.6 47.936 126.6 38ZM128.76 38C128.76 46.784 135.816 53.84 144.6 53.84C153.384 53.84 160.44 46.784 160.44 38C160.44 29.216 153.384 22.16 144.6 22.16C135.816 22.16 128.76 29.216 128.76 38Z" fill="white"/>
</g>
<defs>
<clipPath id="clip0_2006_638">
<rect width="288.2" height="76" fill="white" transform="translate(0.600098)"/>
</clipPath>
</defs>
</svg>
