<svg width="289" height="76" viewBox="0 0 289 76" fill="none" xmlns="http://www.w3.org/2000/svg">
<g clip-path="url(#clip0_2006_617)">
<path fill-rule="evenodd" clip-rule="evenodd" d="M0.200195 0H288.4V76H0.200195V0Z" fill="#8961A6"/>
<path d="M143.912 34.328L143.984 35.048L143.336 34.976C140.96 34.688 138.8 33.536 137 31.736L136.136 30.8L135.92 31.448C135.416 32.96 135.776 34.544 136.712 35.552C137.216 36.128 137.144 36.2 136.208 35.84C135.92 35.696 135.632 35.624 135.56 35.696C135.488 35.768 135.776 37.064 136.064 37.568C136.424 38.288 137.144 38.936 137.864 39.368L138.512 39.656H137.72C137 39.656 136.928 39.656 137 39.944C137.288 40.88 138.296 41.816 139.448 42.248L140.24 42.536L139.52 42.968C138.44 43.616 137.216 43.976 135.992 43.976C135.416 43.976 134.912 44.048 134.912 44.12C134.912 44.264 136.496 45.056 137.504 45.344C140.312 46.28 143.696 45.848 146.216 44.336C148.016 43.256 149.816 41.024 150.608 38.936C151.04 37.784 151.544 35.768 151.544 34.76C151.544 34.112 151.616 34.04 152.336 33.248C152.768 32.816 153.2 32.312 153.272 32.168C153.416 31.88 153.416 31.88 152.696 32.168C151.544 32.6 151.4 32.528 151.976 31.88C152.408 31.448 152.912 30.656 152.912 30.368C152.912 30.296 152.696 30.368 152.48 30.512C152.264 30.656 151.688 30.872 151.328 31.016L150.608 31.232L149.96 30.8C149.6 30.584 149.096 30.296 148.808 30.152C148.16 29.936 147.08 30.008 146.504 30.224C144.848 30.872 143.84 32.528 143.912 34.328C143.912 34.328 143.84 32.528 143.912 34.328Z" fill="white"/>
<path fill-rule="evenodd" clip-rule="evenodd" d="M126.2 38C126.2 28.064 134.264 20 144.2 20C154.136 20 162.2 28.064 162.2 38C162.2 47.936 154.136 56 144.2 56C134.264 56 126.2 47.936 126.2 38ZM128.36 38C128.36 46.784 135.416 53.84 144.2 53.84C152.984 53.84 160.04 46.784 160.04 38C160.04 29.216 152.984 22.16 144.2 22.16C135.416 22.16 128.36 29.216 128.36 38Z" fill="white"/>
</g>
<defs>
<clipPath id="clip0_2006_617">
<rect width="288.2" height="76" fill="white" transform="translate(0.200195)"/>
</clipPath>
</defs>
</svg>
